<mxfile host="app.diagrams.net" modified="2024-03-11T14:50:17.634Z" agent="Mozilla/5.0 (Windows NT 10.0; Win64; x64) AppleWebKit/537.36 (KHTML, like Gecko) Chrome/122.0.0.0 Safari/537.36 Edg/122.0.0.0" etag="LmirCrG1EVq4ijn95yil" version="24.0.4" type="google">
  <diagram name="Page-1" id="vqYCTj3NZ5QOkCfWGSCi">
    <mxGraphModel grid="1" page="1" gridSize="10" guides="1" tooltips="1" connect="1" arrows="1" fold="1" pageScale="1" pageWidth="827" pageHeight="1169" math="0" shadow="0">
      <root>
        <mxCell id="0" />
        <mxCell id="1" parent="0" />
        <mxCell id="V4m46uKcD5Z3-i9zxJf0-4" value="" style="edgeStyle=orthogonalEdgeStyle;rounded=0;orthogonalLoop=1;jettySize=auto;html=1;" edge="1" parent="1" source="V4m46uKcD5Z3-i9zxJf0-1" target="V4m46uKcD5Z3-i9zxJf0-3">
          <mxGeometry relative="1" as="geometry" />
        </mxCell>
        <mxCell id="V4m46uKcD5Z3-i9zxJf0-1" value="Start" style="ellipse;whiteSpace=wrap;html=1;" vertex="1" parent="1">
          <mxGeometry x="330" width="120" height="80" as="geometry" />
        </mxCell>
        <mxCell id="V4m46uKcD5Z3-i9zxJf0-2" value="&lt;div&gt;&lt;font style=&quot;font-size: 14px;&quot;&gt;&lt;b&gt;Tìm ước số chung lớn nhất&lt;/b&gt;&amp;nbsp;&amp;nbsp;&lt;b&gt;&lt;br&gt;&lt;/b&gt;&lt;/font&gt;&lt;/div&gt;&lt;font style=&quot;font-size: 14px;&quot;&gt;&lt;b&gt;Prototype :&amp;nbsp; uscln(a, b)&amp;nbsp;&amp;nbsp;&lt;br&gt;Flowchart 1: a,b &amp;gt; 0.&lt;/b&gt;&lt;/font&gt;" style="text;html=1;align=center;verticalAlign=middle;whiteSpace=wrap;rounded=0;" vertex="1" parent="1">
          <mxGeometry width="200" height="100" as="geometry" />
        </mxCell>
        <mxCell id="V4m46uKcD5Z3-i9zxJf0-6" value="" style="edgeStyle=orthogonalEdgeStyle;rounded=0;orthogonalLoop=1;jettySize=auto;html=1;" edge="1" parent="1" source="V4m46uKcD5Z3-i9zxJf0-3" target="V4m46uKcD5Z3-i9zxJf0-5">
          <mxGeometry relative="1" as="geometry" />
        </mxCell>
        <mxCell id="V4m46uKcD5Z3-i9zxJf0-3" value="Input a,b" style="shape=parallelogram;perimeter=parallelogramPerimeter;whiteSpace=wrap;html=1;fixedSize=1;" vertex="1" parent="1">
          <mxGeometry x="330" y="170" width="120" height="60" as="geometry" />
        </mxCell>
        <mxCell id="V4m46uKcD5Z3-i9zxJf0-8" value="" style="edgeStyle=orthogonalEdgeStyle;rounded=0;orthogonalLoop=1;jettySize=auto;html=1;" edge="1" parent="1" source="V4m46uKcD5Z3-i9zxJf0-5" target="V4m46uKcD5Z3-i9zxJf0-7">
          <mxGeometry relative="1" as="geometry" />
        </mxCell>
        <mxCell id="V4m46uKcD5Z3-i9zxJf0-5" value="r&amp;lt;--a mod b&lt;div&gt;a&amp;lt;--b&lt;/div&gt;&lt;div&gt;b&amp;lt;--r&lt;/div&gt;" style="whiteSpace=wrap;html=1;" vertex="1" parent="1">
          <mxGeometry x="330" y="310" width="120" height="60" as="geometry" />
        </mxCell>
        <mxCell id="V4m46uKcD5Z3-i9zxJf0-10" value="Yes" style="edgeStyle=orthogonalEdgeStyle;rounded=0;orthogonalLoop=1;jettySize=auto;html=1;" edge="1" parent="1" source="V4m46uKcD5Z3-i9zxJf0-7">
          <mxGeometry relative="1" as="geometry">
            <mxPoint x="330" y="340" as="targetPoint" />
            <Array as="points">
              <mxPoint x="250" y="480" />
              <mxPoint x="250" y="340" />
            </Array>
          </mxGeometry>
        </mxCell>
        <mxCell id="V4m46uKcD5Z3-i9zxJf0-12" value="" style="edgeStyle=orthogonalEdgeStyle;rounded=0;orthogonalLoop=1;jettySize=auto;html=1;" edge="1" parent="1" source="V4m46uKcD5Z3-i9zxJf0-7" target="V4m46uKcD5Z3-i9zxJf0-11">
          <mxGeometry relative="1" as="geometry" />
        </mxCell>
        <mxCell id="V4m46uKcD5Z3-i9zxJf0-7" value="&lt;br&gt;b ≤&amp;gt; 0? &lt;div&gt;&lt;br/&gt;&lt;/div&gt;" style="rhombus;whiteSpace=wrap;html=1;" vertex="1" parent="1">
          <mxGeometry x="320" y="440" width="140" height="80" as="geometry" />
        </mxCell>
        <mxCell id="V4m46uKcD5Z3-i9zxJf0-14" value="" style="edgeStyle=orthogonalEdgeStyle;rounded=0;orthogonalLoop=1;jettySize=auto;html=1;" edge="1" parent="1" source="V4m46uKcD5Z3-i9zxJf0-11">
          <mxGeometry relative="1" as="geometry">
            <mxPoint x="390" y="740" as="targetPoint" />
          </mxGeometry>
        </mxCell>
        <mxCell id="V4m46uKcD5Z3-i9zxJf0-11" value="Display a" style="shape=parallelogram;perimeter=parallelogramPerimeter;whiteSpace=wrap;html=1;fixedSize=1;" vertex="1" parent="1">
          <mxGeometry x="330" y="610" width="120" height="60" as="geometry" />
        </mxCell>
        <mxCell id="V4m46uKcD5Z3-i9zxJf0-15" value="End" style="ellipse;whiteSpace=wrap;html=1;" vertex="1" parent="1">
          <mxGeometry x="330" y="740" width="120" height="80" as="geometry" />
        </mxCell>
        <mxCell id="AULY8HrsafdtJlpH_Sr_-2" value="" style="edgeStyle=orthogonalEdgeStyle;rounded=0;orthogonalLoop=1;jettySize=auto;html=1;" edge="1" parent="1" source="AULY8HrsafdtJlpH_Sr_-3" target="AULY8HrsafdtJlpH_Sr_-5">
          <mxGeometry relative="1" as="geometry" />
        </mxCell>
        <mxCell id="AULY8HrsafdtJlpH_Sr_-3" value="Start" style="ellipse;whiteSpace=wrap;html=1;" vertex="1" parent="1">
          <mxGeometry x="330" y="1150" width="120" height="80" as="geometry" />
        </mxCell>
        <mxCell id="AULY8HrsafdtJlpH_Sr_-4" value="" style="edgeStyle=orthogonalEdgeStyle;rounded=0;orthogonalLoop=1;jettySize=auto;html=1;" edge="1" parent="1" target="AULY8HrsafdtJlpH_Sr_-7">
          <mxGeometry relative="1" as="geometry">
            <mxPoint x="390" y="1520" as="sourcePoint" />
          </mxGeometry>
        </mxCell>
        <mxCell id="AULY8HrsafdtJlpH_Sr_-17" value="" style="edgeStyle=orthogonalEdgeStyle;rounded=0;orthogonalLoop=1;jettySize=auto;html=1;" edge="1" parent="1" source="AULY8HrsafdtJlpH_Sr_-5" target="AULY8HrsafdtJlpH_Sr_-16">
          <mxGeometry relative="1" as="geometry" />
        </mxCell>
        <mxCell id="AULY8HrsafdtJlpH_Sr_-5" value="Input a,b" style="shape=parallelogram;perimeter=parallelogramPerimeter;whiteSpace=wrap;html=1;fixedSize=1;" vertex="1" parent="1">
          <mxGeometry x="330" y="1320" width="120" height="60" as="geometry" />
        </mxCell>
        <mxCell id="AULY8HrsafdtJlpH_Sr_-6" value="" style="edgeStyle=orthogonalEdgeStyle;rounded=0;orthogonalLoop=1;jettySize=auto;html=1;" edge="1" parent="1" source="AULY8HrsafdtJlpH_Sr_-7" target="AULY8HrsafdtJlpH_Sr_-10">
          <mxGeometry relative="1" as="geometry" />
        </mxCell>
        <mxCell id="AULY8HrsafdtJlpH_Sr_-7" value="r&amp;lt;--a mod b&lt;div&gt;a&amp;lt;--b&lt;/div&gt;&lt;div&gt;b&amp;lt;--r&lt;/div&gt;" style="whiteSpace=wrap;html=1;" vertex="1" parent="1">
          <mxGeometry x="330" y="1600" width="120" height="60" as="geometry" />
        </mxCell>
        <mxCell id="AULY8HrsafdtJlpH_Sr_-8" value="Yes" style="edgeStyle=orthogonalEdgeStyle;rounded=0;orthogonalLoop=1;jettySize=auto;html=1;" edge="1" parent="1" source="AULY8HrsafdtJlpH_Sr_-10">
          <mxGeometry relative="1" as="geometry">
            <mxPoint x="330" y="1630" as="targetPoint" />
            <Array as="points">
              <mxPoint x="250" y="1770" />
              <mxPoint x="250" y="1630" />
            </Array>
          </mxGeometry>
        </mxCell>
        <mxCell id="AULY8HrsafdtJlpH_Sr_-9" value="" style="edgeStyle=orthogonalEdgeStyle;rounded=0;orthogonalLoop=1;jettySize=auto;html=1;" edge="1" parent="1" target="AULY8HrsafdtJlpH_Sr_-12">
          <mxGeometry relative="1" as="geometry">
            <mxPoint x="390" y="1960" as="sourcePoint" />
          </mxGeometry>
        </mxCell>
        <mxCell id="AULY8HrsafdtJlpH_Sr_-15" value="" style="edgeStyle=orthogonalEdgeStyle;rounded=0;orthogonalLoop=1;jettySize=auto;html=1;" edge="1" parent="1" source="AULY8HrsafdtJlpH_Sr_-10" target="AULY8HrsafdtJlpH_Sr_-14">
          <mxGeometry relative="1" as="geometry" />
        </mxCell>
        <mxCell id="AULY8HrsafdtJlpH_Sr_-10" value="&lt;br&gt;b ≤&amp;gt; 0? &lt;div&gt;&lt;br/&gt;&lt;/div&gt;" style="rhombus;whiteSpace=wrap;html=1;" vertex="1" parent="1">
          <mxGeometry x="320" y="1730" width="140" height="80" as="geometry" />
        </mxCell>
        <mxCell id="AULY8HrsafdtJlpH_Sr_-11" value="" style="edgeStyle=orthogonalEdgeStyle;rounded=0;orthogonalLoop=1;jettySize=auto;html=1;" edge="1" parent="1" source="AULY8HrsafdtJlpH_Sr_-12">
          <mxGeometry relative="1" as="geometry">
            <mxPoint x="390" y="2170" as="targetPoint" />
          </mxGeometry>
        </mxCell>
        <mxCell id="AULY8HrsafdtJlpH_Sr_-12" value="Display a" style="shape=parallelogram;perimeter=parallelogramPerimeter;whiteSpace=wrap;html=1;fixedSize=1;" vertex="1" parent="1">
          <mxGeometry x="330" y="2040" width="120" height="60" as="geometry" />
        </mxCell>
        <mxCell id="AULY8HrsafdtJlpH_Sr_-13" value="End" style="ellipse;whiteSpace=wrap;html=1;" vertex="1" parent="1">
          <mxGeometry x="330" y="2170" width="120" height="80" as="geometry" />
        </mxCell>
        <mxCell id="AULY8HrsafdtJlpH_Sr_-14" value="p&amp;lt;--p/a" style="whiteSpace=wrap;html=1;" vertex="1" parent="1">
          <mxGeometry x="330" y="1900" width="120" height="60" as="geometry" />
        </mxCell>
        <mxCell id="AULY8HrsafdtJlpH_Sr_-16" value="p&amp;lt;--a*b" style="whiteSpace=wrap;html=1;" vertex="1" parent="1">
          <mxGeometry x="330" y="1460" width="120" height="60" as="geometry" />
        </mxCell>
        <mxCell id="AULY8HrsafdtJlpH_Sr_-18" value="&lt;font style=&quot;font-size: 14px;&quot;&gt;&lt;b&gt;Tìm bội số chung nhỏ nhất&amp;nbsp;&lt;br&gt;Prototype : p bscnn(a, b) ;&amp;nbsp;&amp;nbsp;&lt;br&gt;Flowchart :&amp;nbsp;&amp;nbsp;bscnn(a,b)=|a*b|/(usncl(a,b))&lt;/b&gt;&lt;/font&gt;" style="text;html=1;align=center;verticalAlign=middle;whiteSpace=wrap;rounded=0;" vertex="1" parent="1">
          <mxGeometry y="1080" width="280" height="170" as="geometry" />
        </mxCell>
      </root>
    </mxGraphModel>
  </diagram>
</mxfile>
